# xmcd CD database file
# Copyright (C) 1993-1998 Ti Kan
# 
# Track frame offsets:
#     187
#     6140
#     17915
#     29732
# 
# Disc length: 552 seconds
# 
# Revision: 1
# Processed by: cddbd v1.4b41PL1 Copyright (c) Steve Scherf et al.
# Submitted via: DiscPlay 4.0.2
# 
DISCID=2a022604
DTITLE=Martina Mcbride - My Baby Loves Me
DYEAR=1900
DGENRE=
TTITLE0=RCA Promo
TTITLE1=My Baby Loves Me #1
TTITLE2=My Baby Loves Me #2
TTITLE3=My Baby Loves Me #3
EXTD=
EXTT0=
EXTT1=
EXTT2=
EXTT3=
PLAYORDER=
